<svg version="1.1" id="Layer_1" xmlns="http://www.w3.org/2000/svg" xmlns:xlink="http://www.w3.org/1999/xlink" x="0px" y="0px" viewBox="0 0 39 39" style="enable-background:new 0 0 512 512;" xml:space="preserve" width="39" height="28">
  <path style="fill:#D8CCBC;" points="345.6,3.2 166.4,3.2 166.4,41.6 192,41.6 192,137.6 320,137.6 320,41.6 345.6,41.6 " d="M26.325 0.244L12.675 0.244L12.675 3.169L14.625 3.169L14.625 10.481L24.375 10.481L24.375 3.169L26.325 3.169Z"/>
  <g>
    <path style="fill:#BFA993;" points="256,3.2 256,137.6 320,137.6 320,41.6 345.6,41.6 345.6,3.2 	" d="M19.5 0.244L19.5 10.481L24.375 10.481L24.375 3.169L26.325 3.169L26.325 0.244Z"/>
    <path x="153.6" y="124.8" style="fill:#BFA993;" width="204.8" height="140.8" d="M11.7 9.506H27.3V20.231H11.7V9.506z"/>
  </g>
  <path x="256" y="124.8" style="fill:#A58868;" width="102.4" height="140.8" d="M19.5 9.506H27.3V20.231H19.5V9.506z"/>
  <path x="76.8" y="252.8" style="fill:#D8CCBC;" width="358.4" height="140.8" d="M5.85 19.256H33.15V29.981H5.85V19.256z"/>
  <path x="256" y="252.8" style="fill:#BFA993;" width="179.2" height="140.8" d="M19.5 19.256H33.15V29.981H19.5V19.256z"/>
  <path y="380.8" style="fill:#EBE4DD;" width="512" height="128" d="M0 29.006H39V38.756H0V29.006z"/>
  <path x="256" y="380.8" style="fill:#D8CCBC;" width="256" height="128" d="M19.5 29.006H39V38.756H19.5V29.006z"/>
  <path style="fill:#454449;" d="M19.5 4.144c-0.808 0 -1.462 0.655 -1.462 1.462v3.9h2.925V5.606c0 -0.808 -0.655 -1.462 -1.462 -1.462"/>
  <path style="fill:#A58868;" d="M15.113 9.506v29.25h8.775v-29.25zm5.85 2.925v2.34h-2.925v-2.34zM18.038 25.301v-2.34h2.925v2.34zm2.925 2.925v2.34h-2.925v-2.34zm-2.925 -8.19v-2.34h2.925v2.34zm0 15.795v-2.34h2.925v2.34z"/>
  <path style="fill:#947859;" points="313.6,124.799 256,124.799 256,163.199 275.2,163.199 275.2,193.92 256,193.92 256,232.32 
	275.2,232.32 275.2,263.04 256,263.04 256,301.44 275.2,301.44 275.2,332.16 256,332.16 256,370.56 275.2,370.56 275.2,401.28 
	256,401.28 256,439.68 275.2,439.68 275.2,470.4 256,470.4 256,508.8 313.6,508.8 " d="M23.888 9.506L19.5 9.506L19.5 12.431L20.962 12.431L20.962 14.771L19.5 14.771L19.5 17.696L20.962 17.696L20.962 20.036L19.5 20.036L19.5 22.961L20.962 22.961L20.962 25.301L19.5 25.301L19.5 28.226L20.962 28.226L20.962 30.566L19.5 30.566L19.5 33.491L20.962 33.491L20.962 35.831L19.5 35.831L19.5 38.756L23.888 38.756Z"/>
  Conferire
</svg>
